<svg width="1440" height="820" viewBox="0 0 1440 820" fill="none" xmlns="http://www.w3.org/2000/svg">
<g clip-path="url(#clip0_)">
<circle cx="881" cy="-137" r="559" transform="rotate(-180 881 -137)" fill="url(#paint0_radial_)"/>
<circle cx="559" cy="-137" r="559" transform="rotate(-180 559 -137)" fill="url(#paint1_radial_)"/>
<rect x="541" y="140" width="358" height="540" fill="#202024"/>
<mask id="mask0_" style="mask-type:alpha" maskUnits="userSpaceOnUse" x="541" y="140" width="358" height="540">
<rect x="541" y="140" width="358" height="540" fill="#202024"/>
</mask>
<g mask="url(#mask0_)">
<path d="M900 252.492V-205.824L720.5 -309L541 -205.824V252.492L720.5 355.674L900 252.492Z" fill="url(#paint2_linear_)" fill-opacity="0.7"/>
<g style="mix-blend-mode:luminosity" opacity="0.4">
<path d="M542.801 150.35V253.159L632.101 304.569L721.4 253.159V150.35L632.101 98.9399L542.801 150.35Z" fill="url(#paint3_linear_)"/>
<path d="M542.801 47.5349V150.344L632.101 201.754L721.4 150.344V47.5349L632.101 -3.87473L542.801 47.5349Z" fill="url(#paint4_linear_)"/>
<path d="M810.7 -3.84811V98.9614L721.4 150.371L632.101 98.9614V-3.84811L721.4 -55.2578L810.7 -3.84811Z" fill="url(#paint5_linear_)"/>
<path d="M721.4 253.159V150.349L810.7 98.9395L900 150.349V253.159L810.7 304.568L721.4 253.159Z" fill="url(#paint6_linear_)"/>
<path d="M900 47.5349V150.344L810.7 201.754L721.4 150.344V47.5349L810.7 -3.87473L900 47.5349Z" fill="url(#paint7_linear_)"/>
<path d="M810.7 304.59V201.781L721.4 150.371L632.101 201.781V304.59L721.4 356L810.7 304.59Z" fill="url(#paint8_linear_)"/>
</g>
</g>
<rect x="680" y="156" width="80" height="8" fill="#121214"/>
<rect x="688" width="64" height="158" fill="url(#paint9_linear_)"/>
</g>
<defs>
<radialGradient id="paint0_radial_" cx="0" cy="0" r="1" gradientUnits="userSpaceOnUse" gradientTransform="translate(881 -137) rotate(90) scale(559)">
<stop stop-color="#FFC323"/>
<stop offset="1" stop-color="#121214" stop-opacity="0"/>
</radialGradient>
<radialGradient id="paint1_radial_" cx="0" cy="0" r="1" gradientUnits="userSpaceOnUse" gradientTransform="translate(559 -137) rotate(90) scale(559)">
<stop stop-color="#3DFFA2"/>
<stop offset="1" stop-color="#121214" stop-opacity="0"/>
</radialGradient>
<linearGradient id="paint2_linear_" x1="541" y1="-293.234" x2="980.976" y2="-232.679" gradientUnits="userSpaceOnUse">
<stop stop-color="#00FF19"/>
<stop offset="1" stop-color="#FFCD1E"/>
</linearGradient>
<linearGradient id="paint3_linear_" x1="632.101" y1="299.84" x2="543.185" y2="148.104" gradientUnits="userSpaceOnUse">
<stop stop-color="#57E565"/>
<stop offset="1" stop-color="#FF008E" stop-opacity="0"/>
</linearGradient>
<linearGradient id="paint4_linear_" x1="632.101" y1="197.026" x2="543.185" y2="45.2893" gradientUnits="userSpaceOnUse">
<stop stop-color="#57E565"/>
<stop offset="1" stop-color="#FF008E" stop-opacity="0"/>
</linearGradient>
<linearGradient id="paint5_linear_" x1="632.101" y1="-9.62608" x2="810.424" y2="97.9826" gradientUnits="userSpaceOnUse">
<stop stop-color="#00FF66" stop-opacity="0"/>
<stop offset="1" stop-color="#FFCD1E"/>
</linearGradient>
<linearGradient id="paint6_linear_" x1="900" y1="258.937" x2="721.676" y2="151.328" gradientUnits="userSpaceOnUse">
<stop stop-color="#00FF66" stop-opacity="0"/>
<stop offset="1" stop-color="#FFCD1E"/>
</linearGradient>
<linearGradient id="paint7_linear_" x1="810.7" y1="197.026" x2="899.615" y2="45.2893" gradientUnits="userSpaceOnUse">
<stop stop-color="#57E565"/>
<stop offset="1" stop-color="#FF008E" stop-opacity="0"/>
</linearGradient>
<linearGradient id="paint8_linear_" x1="721.4" y1="155.099" x2="810.316" y2="306.836" gradientUnits="userSpaceOnUse">
<stop stop-color="#57E565"/>
<stop offset="1" stop-color="#FF008E" stop-opacity="0"/>
</linearGradient>
<linearGradient id="paint9_linear_" x1="649.5" y1="4.93019e-08" x2="782" y2="158" gradientUnits="userSpaceOnUse">
<stop stop-color="#00FF66"/>
<stop offset="1" stop-color="#FFCD1E"/>
</linearGradient>
<clipPath id="clip0_">
<rect width="1440" height="820" fill="white"/>
</clipPath>
</defs>
</svg>
