<svg width="375" height="812" viewBox="0 0 375 812" fill="none" xmlns="http://www.w3.org/2000/svg">
<g clip-path="url(#clip0_)">
<rect width="375" height="812" fill="#202024"/>
<circle cx="278" cy="99" r="300" transform="rotate(-180 278 99)" fill="url(#paint0_radial_)"/>
<circle cx="98" cy="99" r="300" transform="rotate(-180 98 99)" fill="url(#paint1_radial_)"/>
<mask id="mask0_" style="mask-type:alpha" maskUnits="userSpaceOnUse" x="0" y="0" width="375" height="812">
<rect width="375" height="812" fill="#202024"/>
</mask>
<g mask="url(#mask0_)">
<path d="M378.045 164.587V-314.213L190.522 -422L3 -314.213V164.587L190.522 272.38L378.045 164.587Z" fill="url(#paint2_linear_)"/>
<g style="mix-blend-mode:luminosity" opacity="0.4">
<path d="M4.8813 57.8792V165.283L98.1722 218.991L191.463 165.283V57.8792L98.1722 4.17186L4.8813 57.8792Z" fill="url(#paint3_linear_)"/>
<path d="M4.8813 -49.5305V57.8738L98.1722 111.581L191.463 57.8738V-49.5305L98.1722 -103.238L4.8813 -49.5305Z" fill="url(#paint4_linear_)"/>
<path d="M284.754 -103.21V4.19429L191.463 57.9016L98.1721 4.19429V-103.21L191.463 -156.917L284.754 -103.21Z" fill="url(#paint5_linear_)"/>
<path d="M191.463 165.283V57.8788L284.754 4.17148L378.045 57.8788V165.283L284.754 218.99L191.463 165.283Z" fill="url(#paint6_linear_)"/>
<path d="M378.045 -49.5305V57.8738L284.754 111.581L191.463 57.8738V-49.5305L284.754 -103.238L378.045 -49.5305Z" fill="url(#paint7_linear_)"/>
<path d="M284.754 219.013V111.609L191.463 57.9016L98.1721 111.609L98.1721 219.013L191.463 272.721L284.754 219.013Z" fill="url(#paint8_linear_)"/>
</g>
</g>
</g>
<defs>
<radialGradient id="paint0_radial_" cx="0" cy="0" r="1" gradientUnits="userSpaceOnUse" gradientTransform="translate(278 99) rotate(90) scale(300)">
<stop stop-color="#FFC323"/>
<stop offset="1" stop-color="#121214" stop-opacity="0"/>
</radialGradient>
<radialGradient id="paint1_radial_" cx="0" cy="0" r="1" gradientUnits="userSpaceOnUse" gradientTransform="translate(98 99) rotate(90) scale(300)">
<stop stop-color="#3DFF50"/>
<stop offset="1" stop-color="#121214" stop-opacity="0"/>
</radialGradient>
<linearGradient id="paint2_linear_" x1="-64.905" y1="55.4246" x2="439.159" y2="228.844" gradientUnits="userSpaceOnUse">
<stop stop-color="#61FF00"/>
<stop offset="1" stop-color="#FFCD1E"/>
</linearGradient>
<linearGradient id="paint3_linear_" x1="98.1722" y1="214.051" x2="5.28301" y2="55.5331" gradientUnits="userSpaceOnUse">
<stop stop-color="#170A34"/>
<stop offset="1" stop-color="#FF008E" stop-opacity="0"/>
</linearGradient>
<linearGradient id="paint4_linear_" x1="98.1722" y1="106.641" x2="5.28299" y2="-51.8766" gradientUnits="userSpaceOnUse">
<stop stop-color="#170A34"/>
<stop offset="1" stop-color="#FF008E" stop-opacity="0"/>
</linearGradient>
<linearGradient id="paint5_linear_" x1="98.1722" y1="-109.246" x2="284.466" y2="3.17177" gradientUnits="userSpaceOnUse">
<stop stop-color="#00FF19" stop-opacity="0"/>
<stop offset="1" stop-color="#FFCD1E"/>
</linearGradient>
<linearGradient id="paint6_linear_" x1="378.045" y1="171.319" x2="191.751" y2="58.9013" gradientUnits="userSpaceOnUse">
<stop stop-color="#00FF19" stop-opacity="0"/>
<stop offset="1" stop-color="#FFCD1E"/>
</linearGradient>
<linearGradient id="paint7_linear_" x1="284.754" y1="106.641" x2="377.643" y2="-51.8766" gradientUnits="userSpaceOnUse">
<stop stop-color="#170A34"/>
<stop offset="1" stop-color="#FF008E" stop-opacity="0"/>
</linearGradient>
<linearGradient id="paint8_linear_" x1="191.463" y1="62.8413" x2="284.352" y2="221.359" gradientUnits="userSpaceOnUse">
<stop stop-color="#170A34"/>
<stop offset="1" stop-color="#FF008E" stop-opacity="0"/>
</linearGradient>
<clipPath id="clip0_">
<rect width="375" height="812" fill="white"/>
</clipPath>
</defs>
</svg>
